<?xml version="1.0" encoding="UTF-8" standalone="no"?>
<svg
   xmlns:dc="http://purl.org/dc/elements/1.1/"
   xmlns:cc="http://creativecommons.org/ns#"
   xmlns:rdf="http://www.w3.org/1999/02/22-rdf-syntax-ns#"
   xmlns:svg="http://www.w3.org/2000/svg"
   xmlns="http://www.w3.org/2000/svg"
   xmlns:sodipodi="http://sodipodi.sourceforge.net/DTD/sodipodi-0.dtd"
   xmlns:inkscape="http://www.inkscape.org/namespaces/inkscape"
   width="1792"
   height="1792"
   viewBox="0 0 1792 1792"
   version="1.1"
   id="svg4"
   sodipodi:docname="spam-list.svg"
   inkscape:version="0.92.3 (2405546, 2018-03-11)">
  <metadata
     id="metadata10">
    <rdf:RDF>
      <cc:Work
         rdf:about="">
        <dc:format>image/svg+xml</dc:format>
        <dc:type
           rdf:resource="http://purl.org/dc/dcmitype/StillImage" />
        <dc:title />
      </cc:Work>
    </rdf:RDF>
  </metadata>
  <defs
     id="defs8" />
  <sodipodi:namedview
     pagecolor="#ffffff"
     bordercolor="#666666"
     borderopacity="1"
     objecttolerance="10"
     gridtolerance="10"
     guidetolerance="10"
     inkscape:pageopacity="0"
     inkscape:pageshadow="2"
     inkscape:window-width="1349"
     inkscape:window-height="823"
     id="namedview6"
     showgrid="false"
     inkscape:zoom="0.13169643"
     inkscape:cx="896.00002"
     inkscape:cy="896.00002"
     inkscape:window-x="0"
     inkscape:window-y="0"
     inkscape:window-maximized="0"
     inkscape:current-layer="svg4"
     inkscape:pagecheckerboard="true" />
  <g
     id="g10">
    <path
       style="fill:#ffffff;fill-opacity:0.50588238;stroke:none"
       id="path11"
       d="m 1474,913 39,51 q 8,11 6.5,23.5 -1.5,12.5 -11.5,20.5 -43,34 -126.5,98.5 -83.5,64.5 -146.5,113 -63,48.5 -67,51.5 -39,32 -60,48 -21,16 -60.5,41 -39.5,25 -76.5,36.5 -37,11.5 -74,11.5 h -2 q -37,0 -74,-11.5 -37,-11.5 -76,-36.5 -39,-25 -61,-41.5 -22,-16.5 -60,-47.5 -5,-4 -65,-50.5 Q 499,1174 415.5,1109.5 332,1045 293,1015 282,1007 280.5,994.5 279,982 287,971 l 37,-52 q 8,-11 21.5,-13 13.5,-2 24.5,7 94,73 306,236 5,4 43.5,35 38.5,31 60.5,46.5 22,15.5 56.5,32.5 34.5,17 58.5,17 h 2 q 24,0 58.5,-17 34.5,-17 56.5,-32.5 22,-15.5 60.5,-46.5 38.5,-31 43.5,-35 258,-198 313,-242 11,-8 24,-6.5 13,1.5 21,12.5 z" />
    <path
       inkscape:connector-curvature="0"
       style="fill:none;fill-opacity:1;stroke:#ffffff;stroke-width:112.56171417;stroke-miterlimit:4;stroke-dasharray:none;stroke-opacity:1"
       id="path2"
       d="m 1735.7191,716.06018 v 869.70912 q 0,61.8543 -44.0477,105.9021 -44.0478,44.0477 -105.9021,44.0477 H 206.23072 q -61.85431,0 -105.90208,-44.0477 -44.047769,-44.0478 -44.047769,-105.9021 V 716.06018 q 0,-52.48245 38.424648,-88.09553 Q 209.97947,521.12538 422.72081,355.71195 635.46215,190.29854 641.08527,185.61261 q 33.73871,-28.1156 55.29401,-44.51636 21.55529,-16.40077 57.63697,-39.36183 36.08168,-22.961068 71.22618,-34.207315 35.14449,-11.246239 69.82039,-11.246239 h 1.87437 q 34.67591,0 69.82041,11.246239 35.1445,11.246247 71.2262,34.207315 36.0816,22.96106 57.637,39.36183 21.5552,16.40076 55.2939,44.51636 40.299,33.73872 146.2012,114.33675 105.902,80.59804 211.804,165.88202 105.9022,85.28397 188.3746,162.13327 38.4246,35.61308 38.4246,88.09553 z" />
  </g>
</svg>
