<?xml version="1.0" encoding="UTF-8" standalone="no"?>
<svg
   xmlns:dc="http://purl.org/dc/elements/1.1/"
   xmlns:cc="http://creativecommons.org/ns#"
   xmlns:rdf="http://www.w3.org/1999/02/22-rdf-syntax-ns#"
   xmlns:svg="http://www.w3.org/2000/svg"
   xmlns="http://www.w3.org/2000/svg"
   xmlns:sodipodi="http://sodipodi.sourceforge.net/DTD/sodipodi-0.dtd"
   xmlns:inkscape="http://www.inkscape.org/namespaces/inkscape"
   width="1792"
   height="1792"
   viewBox="0 0 1792 1792"
   version="1.1"
   id="svg4"
   sodipodi:docname="unverified-breach.svg"
   inkscape:version="0.92.3 (2405546, 2018-03-11)">
  <metadata
     id="metadata10">
    <rdf:RDF>
      <cc:Work
         rdf:about="">
        <dc:format>image/svg+xml</dc:format>
        <dc:type
           rdf:resource="http://purl.org/dc/dcmitype/StillImage" />
        <dc:title></dc:title>
      </cc:Work>
    </rdf:RDF>
  </metadata>
  <defs
     id="defs8" />
  <sodipodi:namedview
     pagecolor="#ffffff"
     bordercolor="#666666"
     borderopacity="1"
     objecttolerance="10"
     gridtolerance="10"
     guidetolerance="10"
     inkscape:pageopacity="0"
     inkscape:pageshadow="2"
     inkscape:window-width="1317"
     inkscape:window-height="756"
     id="namedview6"
     showgrid="false"
     inkscape:zoom="0.093123438"
     inkscape:cx="3371.2089"
     inkscape:cy="-324.78477"
     inkscape:window-x="0"
     inkscape:window-y="0"
     inkscape:window-maximized="0"
     inkscape:current-layer="svg4"
     inkscape:pagecheckerboard="true" />
  <g
     id="g826">
    <path
       id="path13"
       d="m 1026.1155,1250.9952 v 186.5664 q 0,16.3245 -10.4944,26.8189 -10.4944,10.4944 -26.81896,10.4944 H 802.23569 q -16.32455,0 -26.81891,-10.4944 -10.49437,-10.4944 -10.49437,-26.8189 v -186.5664 q 0,-16.3246 10.49437,-26.819 10.49436,-10.4943 26.81891,-10.4943 h 186.56645 q 16.32456,0 26.81896,10.4943 10.4944,10.4944 10.4944,26.819 z"
       style="fill:#ffffff;stroke-width:1.1660403;fill-opacity:0.50588238" />
    <path
       id="path11"
       d="m 1324.6218,672.63918 q 0,58.30202 -17.4907,104.94363 -17.4905,46.64161 -53.0548,80.45678 -35.5643,33.81517 -60.6341,51.30577 -25.0698,17.4906 -69.3794,41.97745 -37.3133,20.98872 -54.2209,32.64913 -16.9075,11.6604 -30.317,27.98496 -13.4094,16.3246 -13.4094,33.8152 v 37.3133 q 0,16.3246 -10.4944,26.8189 -10.4944,10.4943 -26.81896,10.4943 H 802.23569 q -16.32455,0 -26.81891,-10.4943 -10.49437,-10.4943 -10.49437,-26.8189 v -79.2908 q 0,-40.81138 12.24342,-75.20957 12.24343,-34.39819 27.98497,-55.38691 15.74154,-20.98874 45.47557,-41.39443 29.73403,-20.40571 47.80765,-29.73403 18.07362,-9.32833 51.88879,-24.48685 61.80019,-29.15101 87.45299,-50.13973 25.653,-20.98873 25.653,-57.13597 0,-48.97369 -50.7228,-83.37188 -50.72278,-34.39819 -111.35688,-34.39819 -65.29826,0 -110.77382,31.48309 -33.81517,23.32081 -93.28322,96.78134 -10.49437,13.99248 -29.15102,13.99248 -12.82643,0 -22.15476,-6.99624 l -125.93234,-95.6153 q -11.66041,-8.16228 -13.99248,-23.32081 -2.33209,-15.15852 5.83019,-26.81892 142.25691,-223.87973 406.94805,-223.87973 150.41918,0 278.10058,104.3606 127.6815,104.3606 127.6815,250.11563 z"
       style="fill:#ffffff;stroke-width:1.1660403;fill-opacity:0.50588238" />
    <path
       inkscape:connector-curvature="0"
       id="path9"
       d="m 896.00097,0.481464 c -162.46834,0 -312.30584,40.0334 -449.50984,120.101506 -137.204,80.0681 -245.8401,188.7042 -325.9082,325.9082 -80.0681,137.204 -120.1015,287.0395 -120.1015,449.5078 0,162.46823 40.0334,312.30563 120.1015,449.50973 80.0681,137.2041 188.7042,245.8401 325.9082,325.9082 137.204,80.0681 287.0415,120.1016 449.50984,120.1016 162.46833,0 312.30383,-40.0335 449.50783,-120.1016 137.2041,-80.0681 245.8401,-188.7041 325.9082,-325.9082 80.0681,-137.2041 120.1016,-287.0415 120.1016,-449.50973 0,-162.4682 -40.0335,-312.3037 -120.1016,-449.5078 -80.0681,-137.204 -188.7041,-245.8401 -325.9082,-325.9082 C 1208.3048,40.514864 1058.4693,0.481464 896.00097,0.481464 Z m 0,149.251906 c 101.0568,0 197.64263,19.8234 289.75983,59.4688 92.1172,39.6454 171.4087,92.6998 237.873,159.164 66.4643,66.4644 119.5186,145.754 159.1641,237.8711 39.6453,92.1172 59.4687,188.7049 59.4687,289.7617 0,101.0569 -19.8234,197.64453 -59.4687,289.76173 -39.6455,92.1172 -92.6998,171.4068 -159.1641,237.8711 -66.4643,66.4642 -145.7558,119.5205 -237.873,159.166 -92.1172,39.6453 -188.70303,59.4668 -289.75983,59.4668 -101.05694,0 -197.64454,-19.8215 -289.76174,-59.4668 -92.1172,-39.6455 -171.4087,-92.7018 -237.8731,-159.166 -66.4642,-66.4643 -119.5186,-145.7539 -159.164,-237.8711 -39.6454,-92.1172 -59.4668,-188.70483 -59.4668,-289.76173 0,-101.0568 19.8214,-197.6445 59.4668,-289.7617 39.6454,-92.1171 92.6998,-171.4067 159.164,-237.8711 66.4644,-66.4642 145.7559,-119.5186 237.8731,-159.164 92.1172,-39.6454 188.7048,-59.4688 289.76174,-59.4688 z"
       style="fill:#ffffff;stroke-width:1.1660403" />
  </g>
</svg>
