<?xml version="1.0" encoding="UTF-8" standalone="no"?>
<svg
   xmlns:dc="http://purl.org/dc/elements/1.1/"
   xmlns:cc="http://creativecommons.org/ns#"
   xmlns:rdf="http://www.w3.org/1999/02/22-rdf-syntax-ns#"
   xmlns:svg="http://www.w3.org/2000/svg"
   xmlns="http://www.w3.org/2000/svg"
   xmlns:sodipodi="http://sodipodi.sourceforge.net/DTD/sodipodi-0.dtd"
   xmlns:inkscape="http://www.inkscape.org/namespaces/inkscape"
   width="1792"
   height="1792"
   viewBox="0 0 1792 1792"
   version="1.1"
   id="svg4"
   sodipodi:docname="unverified-breach.svg"
   inkscape:version="0.92.2 5c3e80d, 2017-08-06">
  <metadata
     id="metadata10">
    <rdf:RDF>
      <cc:Work
         rdf:about="">
        <dc:format>image/svg+xml</dc:format>
        <dc:type
           rdf:resource="http://purl.org/dc/dcmitype/StillImage" />
        <dc:title></dc:title>
      </cc:Work>
    </rdf:RDF>
  </metadata>
  <defs
     id="defs8" />
  <sodipodi:namedview
     pagecolor="#ffffff"
     bordercolor="#666666"
     borderopacity="1"
     objecttolerance="10"
     gridtolerance="10"
     guidetolerance="10"
     inkscape:pageopacity="0"
     inkscape:pageshadow="2"
     inkscape:window-width="1317"
     inkscape:window-height="756"
     id="namedview6"
     showgrid="false"
     inkscape:zoom="0.093123438"
     inkscape:cx="3371.2089"
     inkscape:cy="-324.78477"
     inkscape:window-x="0"
     inkscape:window-y="0"
     inkscape:window-maximized="0"
     inkscape:current-layer="svg4" />
  <path
     d="m 1026.1155,1250.9952 v 186.5664 q 0,16.3245 -10.4944,26.8189 -10.4944,10.4944 -26.81896,10.4944 H 802.23569 q -16.32455,0 -26.81891,-10.4944 -10.49437,-10.4944 -10.49437,-26.8189 v -186.5664 q 0,-16.3246 10.49437,-26.819 10.49436,-10.4943 26.81891,-10.4943 h 186.56645 q 16.32456,0 26.81896,10.4943 10.4944,10.4944 10.4944,26.819 z m 298.5063,-578.35602 q 0,58.30202 -17.4907,104.94363 -17.4905,46.64161 -53.0548,80.45678 -35.5643,33.81517 -60.6341,51.30577 -25.0698,17.4906 -69.3794,41.97745 -37.3133,20.98872 -54.2209,32.64913 -16.9075,11.6604 -30.317,27.98496 -13.4094,16.3246 -13.4094,33.8152 v 37.3133 q 0,16.3246 -10.4944,26.8189 -10.4944,10.4943 -26.81896,10.4943 H 802.23569 q -16.32455,0 -26.81891,-10.4943 -10.49437,-10.4943 -10.49437,-26.8189 v -79.2908 q 0,-40.81138 12.24342,-75.20957 12.24343,-34.39819 27.98497,-55.38691 15.74154,-20.98874 45.47557,-41.39443 29.73403,-20.40571 47.80765,-29.73403 18.07362,-9.32833 51.88879,-24.48685 61.80019,-29.15101 87.45299,-50.13973 25.653,-20.98873 25.653,-57.13597 0,-48.97369 -50.7228,-83.37188 -50.72278,-34.39819 -111.35688,-34.39819 -65.29826,0 -110.77382,31.48309 -33.81517,23.32081 -93.28322,96.78134 -10.49437,13.99248 -29.15102,13.99248 -12.82643,0 -22.15476,-6.99624 l -125.93234,-95.6153 q -11.66041,-8.16228 -13.99248,-23.32081 -2.33209,-15.15852 5.83019,-26.81892 142.25691,-223.87973 406.94805,-223.87973 150.41918,0 278.10058,104.3606 127.6815,104.3606 127.6815,250.11563 z M 895.51892,150.25315 q -151.58524,0 -289.76101,59.46805 -138.17577,59.46806 -237.8722,159.1645 -99.69645,99.69644 -159.16451,237.87221 -59.46805,138.17577 -59.46805,289.761 0,151.58529 59.46805,289.76099 59.46806,138.1758 159.16451,237.8722 99.69643,99.6964 237.8722,159.1646 138.17577,59.468 289.76101,59.468 151.58528,0 289.76098,-59.468 138.1758,-59.4682 237.8722,-159.1646 99.6964,-99.6964 159.1646,-237.8722 59.468,-138.1757 59.468,-289.76099 0,-151.58523 -59.468,-289.761 Q 1522.8485,468.58214 1423.1521,368.8857 1323.4557,269.18926 1185.2799,209.7212 1047.1042,150.25315 895.51892,150.25315 Z m 895.51888,746.26576 q 0,243.70249 -120.1021,449.50849 -120.1021,205.8062 -325.9083,325.9083 -205.806,120.1021 -449.50848,120.1021 -243.70241,0 -449.50852,-120.1021 Q 240.2043,1551.8336 120.10215,1346.0274 0,1140.2214 0,896.51891 0,652.81651 120.10215,447.0104 240.2043,241.2043 446.0104,121.10215 651.81651,1.0000078 895.51892,1.0000078 q 243.70248,0 449.50848,120.1021422 205.8062,120.10215 325.9083,325.90825 120.1021,205.80611 120.1021,449.50851 z"
     id="path2"
     inkscape:connector-curvature="0"
     style="fill:#ffffff;stroke-width:1.1660403" />
</svg>
