<?xml version="1.0" encoding="UTF-8" standalone="no"?>
<!-- Generator: Adobe Illustrator 14.0.0, SVG Export Plug-In . SVG Version: 6.00 Build 43363)  -->

<svg
   xmlns:dc="http://purl.org/dc/elements/1.1/"
   xmlns:cc="http://creativecommons.org/ns#"
   xmlns:rdf="http://www.w3.org/1999/02/22-rdf-syntax-ns#"
   xmlns:svg="http://www.w3.org/2000/svg"
   xmlns="http://www.w3.org/2000/svg"
   xmlns:sodipodi="http://sodipodi.sourceforge.net/DTD/sodipodi-0.dtd"
   xmlns:inkscape="http://www.inkscape.org/namespaces/inkscape"
   version="1.1"
   id="icon-m-common-help-layer"
   x="0px"
   y="0px"
   width="48px"
   height="48px"
   viewBox="0 0 48 48"
   style="enable-background:new 0 0 48 48;"
   xml:space="preserve"
   sodipodi:docname="unverified-breach.svg"
   inkscape:version="0.92.2 5c3e80d, 2017-08-06"><metadata
     id="metadata14"><rdf:RDF><cc:Work
         rdf:about=""><dc:format>image/svg+xml</dc:format><dc:type
           rdf:resource="http://purl.org/dc/dcmitype/StillImage" /><dc:title></dc:title></cc:Work></rdf:RDF></metadata><defs
     id="defs12" /><sodipodi:namedview
     pagecolor="#cb7979"
     bordercolor="#666666"
     borderopacity="1"
     objecttolerance="10"
     gridtolerance="10"
     guidetolerance="10"
     inkscape:pageopacity="0"
     inkscape:pageshadow="2"
     inkscape:window-width="1571"
     inkscape:window-height="999"
     id="namedview10"
     showgrid="false"
     inkscape:zoom="13.906433"
     inkscape:cx="37.405614"
     inkscape:cy="20.86396"
     inkscape:window-x="0"
     inkscape:window-y="0"
     inkscape:window-maximized="0"
     inkscape:current-layer="icon-m-common-help-layer"
     inkscape:pagecheckerboard="true" /><g
     id="g4515"><path
       style="fill:#ffffff;stroke-width:1.03092873"
       d="m 23.579607,37.35893 c -1.925775,0 -3.459797,-1.53196 -3.459797,-3.457735 0,-1.923713 1.534022,-3.493817 3.459797,-3.493817 1.927836,0 3.498972,1.569073 3.498972,3.493817 0,1.925775 -1.570105,3.457735 -3.498972,3.457735 z m 5.171138,-14.455682 c -1.722682,1.614434 -2.461858,2.458765 -2.461858,3.898972 v 1.441239 h -6.026809 v -1.687631 c 0,-2.424744 1.195878,-3.865982 3.024745,-5.552581 1.335053,-1.228867 2.460827,-2.282476 2.460827,-3.932994 0,-2.038146 -1.337115,-3.125776 -3.55258,-3.125776 -1.192785,0 -2.811343,0.279382 -4.394849,0.703093 v -3.373198 c 1.652578,-0.384537 4.235055,-0.703094 6.097943,-0.703094 4.502065,0 8.335058,1.50928 8.335058,6.217531 0,2.916498 -1.793816,4.497943 -3.482477,6.114439 z"
       id="path4"
       inkscape:connector-curvature="0" /><path
       style="fill:#ffffff;stroke-width:1.03092873"
       d="m 23.985793,-0.00398809 c -13.216506,0 -23.96909299,10.75258609 -23.96909299,23.96909309 0,13.216505 10.75258699,23.96909 23.96909299,23.96909 13.216505,0 23.969091,-10.752585 23.969091,-23.96909 0,-13.216507 -10.752586,-23.96909309 -23.969091,-23.96909309 z m 0,43.82890209 c -10.950525,0 -19.8608421,-8.910316 -19.8608421,-19.859809 0,-10.951557 8.9103171,-19.8598114 19.8608421,-19.8598114 10.950524,0 19.85981,8.9082544 19.85981,19.8598114 0,10.949493 -8.909286,19.859809 -19.85981,19.859809 z"
       id="path6"
       inkscape:connector-curvature="0" /></g></svg>